<svg width="92" height="88" xmlns="http://www.w3.org/2000/svg" xmlns:xlink="http://www.w3.org/1999/xlink" overflow="hidden"><defs><clipPath id="clip0"><path d="M81 101 173 101 173 189 81 189Z" fill-rule="evenodd" clip-rule="evenodd"/></clipPath></defs><g clip-path="url(#clip0)" transform="translate(-81 -101)"><path d="M83.5001 145.5 95.6245 137.347 89.3949 124.5 104.166 123.226 105.5 109.127 118.959 115.073 127.5 103.5 136.041 115.073 149.5 109.127 150.835 123.226 165.605 124.5 159.376 137.347 171.5 145.5 159.376 153.653 165.605 166.5 150.835 167.774 149.5 181.873 136.041 175.927 127.5 187.5 118.959 175.927 105.5 181.873 104.166 167.774 89.3949 166.5 95.6245 153.653Z" stroke="#B4C7E7" stroke-miterlimit="8" fill="#B4C7E7" fill-rule="evenodd"/><path d="M100 145C100 130.641 111.864 119 126.5 119 141.136 119 153 130.641 153 145 153 159.359 141.136 171 126.5 171 111.864 171 100 159.359 100 145Z" fill="#FFFFFF" fill-rule="evenodd"/></g></svg>